<svg width="72" height="72" viewBox="0 0 72 72" fill="none" xmlns="http://www.w3.org/2000/svg">
<g clip-path="url(#clip0_1_2189)">
<rect width="72" height="72" rx="12" fill="#F5F5FA"/>
<path d="M35.9988 26C34.728 26 33.4988 26.2812 32.3113 26.8438C31.228 27.3646 30.2592 28.1042 29.405 29.0625L29.2488 29.0312C29.1446 29.0104 29.0613 29 28.9988 29C28.2696 29 27.603 29.1875 26.9988 29.5625C26.3946 29.9167 25.905 30.3958 25.53 31C25.1759 31.6042 24.9988 32.2708 24.9988 33C24.103 33.5417 23.3842 34.2396 22.8425 35.0938C22.28 35.9896 21.9988 36.9688 21.9988 38.0312C21.9988 39.0938 22.2696 40.0833 22.8113 41C23.353 41.9167 24.0821 42.6458 24.9988 43.1875C25.9155 43.7292 26.9155 44 27.9988 44H32.9988V42H27.9988C27.2696 42 26.5925 41.8229 25.9675 41.4688C25.3634 41.1146 24.8842 40.6354 24.53 40.0312C24.1759 39.4062 23.9988 38.7292 23.9988 38C23.9988 37.1875 24.2175 36.4479 24.655 35.7812C25.1134 35.1146 25.7071 34.625 26.4363 34.3125L27.1238 34.0312L26.9988 33C26.9988 32.4375 27.1863 31.9688 27.5613 31.5938C27.9571 31.1979 28.4363 31 28.9988 31C29.1446 31 29.3009 31.0208 29.4675 31.0625L30.0925 31.2188L30.4675 30.7188C31.1134 29.8854 31.9155 29.2292 32.8738 28.75C33.853 28.25 34.8842 28 35.9675 28C37.0509 28 38.0613 28.2292 38.9988 28.6875C39.9571 29.1458 40.7592 29.7812 41.405 30.5938C42.0717 31.3854 42.53 32.2812 42.78 33.2812L42.9675 34.0625L43.8113 34.0312C44.1863 34.0104 44.2488 34 43.9988 34C44.728 34 45.3946 34.1771 45.9988 34.5312C46.6238 34.8854 47.1134 35.375 47.4675 36C47.8217 36.6042 47.9988 37.2708 47.9988 38C47.9988 38.7292 47.8217 39.4062 47.4675 40.0312C47.1134 40.6354 46.6238 41.1146 45.9988 41.4688C45.3946 41.8229 44.728 42 43.9988 42H38.9988V44H43.9988C45.0821 44 46.0821 43.7292 46.9988 43.1875C47.9155 42.6458 48.6446 41.9167 49.1863 41C49.728 40.0833 49.9988 39.0833 49.9988 38C49.9988 36.9583 49.7488 36 49.2488 35.125C48.7488 34.25 48.0717 33.5521 47.2175 33.0312C46.3634 32.4896 45.4259 32.1771 44.405 32.0938C43.9884 30.9271 43.3634 29.8854 42.53 28.9688C41.7175 28.0312 40.7592 27.3125 39.655 26.8125C38.5092 26.2708 37.2905 26 35.9988 26ZM35.9988 34L31.9988 38H34.9988V46H36.9988V38H39.9988L35.9988 34Z" fill="#603AE5"/>
</g>
<defs>
<clipPath id="clip0_1_2189">
<rect width="72" height="72" fill="white"/>
</clipPath>
</defs>
</svg>
